<svg xmlns="http://www.w3.org/2000/svg" viewBox="0 0 104 36"><path fill="#0C4B33" d="M12.26 0h5.691v26.082c-2.915.552-5.06.769-7.383.769C3.618 26.843 0 23.738 0 17.775 0 12.029 3.838 8.3 9.785 8.3c.923 0 1.626.072 2.475.29V0Zm0 13.124c-.666-.217-1.215-.29-1.919-.29-2.878 0-4.54 1.756-4.54 4.833 0 2.995 1.589 4.65 4.504 4.65.63 0 1.142-.036 1.955-.145v-9.048ZM26.996 8.7v13.059c0 4.497-.337 6.66-1.326 8.524-.922 1.793-2.138 2.923-4.65 4.172l-5.28-2.489c2.511-1.167 3.727-2.198 4.503-3.773.813-1.61 1.07-3.474 1.07-8.379V8.7h5.683ZM21.313.029h5.69v5.782h-5.69V.03Zm9.117 9.954C32.943 8.815 35.345 8.3 37.967 8.3c2.923 0 4.84.769 5.691 2.27.476.842.63 1.938.63 4.281v11.448c-2.548.363-5.764.624-8.123.624-4.768 0-6.907-1.647-6.907-5.303 0-3.954 2.843-5.782 9.822-6.363v-1.241c0-1.023-.52-1.393-1.956-1.393-2.102 0-4.467.588-6.686 1.72l-.008-4.36Zm8.906 8.96c-3.764.362-4.987.95-4.987 2.415 0 1.097.703 1.611 2.255 1.611.85 0 1.626-.072 2.731-.254v-3.773h.001Zm7.72-9.366c3.362-.878 6.13-1.277 8.935-1.277 2.915 0 5.025.66 6.276 1.937 1.179 1.204 1.554 2.525 1.554 5.34v11.049h-5.692V15.8c0-2.162-.74-2.967-2.767-2.967-.777 0-1.48.073-2.622.406v13.387h-5.684V9.577ZM66.033 29.7c1.991 1.023 3.984 1.495 6.093 1.495 3.728 0 5.317-1.501 5.317-5.085V26c-1.106.545-2.22.77-3.692.77-4.986 0-8.158-3.257-8.158-8.415 0-6.406 4.695-10.027 13-10.027 2.44 0 4.695.254 7.426.806l-1.948 4.063c-1.515-.29-.125-.044-1.266-.153v.588l.073 2.38.036 3.076c.037.77.037 1.537.074 2.307v1.537c0 4.832-.41 7.096-1.626 8.968-1.773 2.742-4.84 4.099-9.2 4.099-2.218 0-4.138-.327-6.13-1.097v-5.202Zm11.3-16.83h-.593c-1.106-.037-2.402.253-3.289.805-1.361.769-2.064 2.162-2.064 4.135 0 2.814 1.406 4.426 3.919 4.426.775 0 1.406-.145 2.138-.363v-1.945c0-.66-.037-1.392-.037-2.162l-.036-2.597-.037-1.864v-.436Zm17.512-4.644c5.683 0 9.155 3.548 9.155 9.294 0 5.89-3.617 9.583-9.383 9.583-5.69 0-9.2-3.547-9.2-9.256.01-5.928 3.628-9.62 9.428-9.62Zm-.117 14.335c2.182 0 3.471-1.791 3.471-4.903 0-3.076-1.253-4.905-3.434-4.905-2.256 0-3.546 1.792-3.546 4.905 0 3.112 1.297 4.903 3.509 4.903Zm0 0"/></svg>